<svg xmlns:xlink="http://www.w3.org/1999/xlink" xmlns="http://www.w3.org/2000/svg" class="e9a6ea91" aria-label="Location Icon" width="1024"  height="1024" ><defs><svg xmlns="http://www.w3.org/2000/svg" viewBox="0 0 1024 1024" id="svg"><path d="M512 85.3c211.8 0 384 172.3 384 384 0 200.6-214.8 392.4-312.7 469.4H440.7C342.7 861.7 128 670 128 469.3c0-211.7 172.3-384 384-384zm0 85.4a299 299 0 0 0-298.7 298.6c0 160 197 340.6 298.5 416.6 74.8-56.7 299-241.3 299-416.6A299 299 0 0 0 512 170.7zm0 128c94 0 170.7 76.5 170.7 170.6S606 640 512 640c-94 0-170.7-76.6-170.7-170.7S418 298.7 512 298.7zm0 85.3a85.4 85.4 0 1 0 .2 170.8A85.4 85.4 0 0 0 512 384z"></path></svg></defs><use xlink:href="#svg" fill="#5C7A7D"></use></svg>